<svg xmlns="http://www.w3.org/2000/svg" xmlns:xlink="http://www.w3.org/1999/xlink" width="500" zoomAndPan="magnify" viewBox="0 0 375 374.999991" height="500" preserveAspectRatio="xMidYMid meet" version="1.0"><defs><clipPath id="id1"><path d="M 42.261719 44 L 328 44 L 328 330 L 42.261719 330 Z M 42.261719 44 " clip-rule="nonzero"/></clipPath><clipPath id="id2"><path d="M 184.65625 38.515625 L 333.132812 186.21875 L 185.429688 334.691406 L 36.953125 186.988281 Z M 184.65625 38.515625 " clip-rule="nonzero"/></clipPath><clipPath id="id3"><path d="M 184.65625 38.515625 L 333.132812 186.21875 L 185.429688 334.691406 L 36.953125 186.988281 Z M 184.65625 38.515625 " clip-rule="nonzero"/></clipPath><clipPath id="id4"><path d="M 194.390625 48.195312 L 323.398438 176.554688 C 328.777344 181.898438 328.792969 190.574219 323.453125 195.933594 L 195.089844 324.957031 C 189.75 330.335938 181.074219 330.355469 175.714844 325.011719 L 46.6875 196.648438 C 41.308594 191.308594 41.292969 182.632812 46.632812 177.253906 L 174.996094 48.246094 C 180.339844 42.871094 189.015625 42.851562 194.390625 48.195312 " clip-rule="nonzero"/></clipPath><clipPath id="id5"><path d="M 152.75 231.15625 L 218.195312 231.15625 L 218.195312 296.601562 L 152.75 296.601562 Z M 152.75 231.15625 " clip-rule="nonzero"/></clipPath><clipPath id="id6"><path d="M 185.484375 231.15625 C 167.414062 231.15625 152.75 245.800781 152.75 263.871094 C 152.75 281.9375 167.414062 296.601562 185.484375 296.601562 C 203.550781 296.601562 218.195312 281.9375 218.195312 263.871094 C 218.195312 245.800781 203.550781 231.15625 185.484375 231.15625 " clip-rule="nonzero"/></clipPath><clipPath id="id7"><path d="M 224.59375 158.683594 L 290.039062 158.683594 L 290.039062 224.128906 L 224.59375 224.128906 Z M 224.59375 158.683594 " clip-rule="nonzero"/></clipPath><clipPath id="id8"><path d="M 257.328125 158.683594 C 239.238281 158.683594 224.59375 173.328125 224.59375 191.398438 C 224.59375 209.464844 239.238281 224.128906 257.328125 224.128906 C 275.394531 224.128906 290.039062 209.464844 290.039062 191.398438 C 290.039062 173.328125 275.394531 158.683594 257.328125 158.683594 " clip-rule="nonzero"/></clipPath><clipPath id="id9"><path d="M 77.753906 158.683594 L 143.195312 158.683594 L 143.195312 224.128906 L 77.753906 224.128906 Z M 77.753906 158.683594 " clip-rule="nonzero"/></clipPath><clipPath id="id10"><path d="M 110.464844 158.683594 C 92.398438 158.683594 77.753906 173.328125 77.753906 191.398438 C 77.753906 209.464844 92.398438 224.128906 110.464844 224.128906 C 128.550781 224.128906 143.195312 209.464844 143.195312 191.398438 C 143.195312 173.328125 128.550781 158.683594 110.464844 158.683594 " clip-rule="nonzero"/></clipPath></defs><path stroke-linecap="round" transform="matrix(10.778795, 10.778795, -10.797744, 10.797744, 53.342754, 56.114615)" fill="none" stroke-linejoin="miter" d="M 0.499555 -0.00028876 L 23.6869 -0.000469643 " stroke="#000000" stroke-width="1" stroke-opacity="1" stroke-miterlimit="4"/><path stroke-linecap="round" transform="matrix(10.800761, -10.800761, 10.797744, 10.797744, 56.206086, 314.393797)" fill="none" stroke-linejoin="miter" d="M 0.499287 0.000258674 L 23.352495 0.000258674 " stroke="#000000" stroke-width="1" stroke-opacity="1" stroke-miterlimit="4"/><g clip-path="url(#id1)"><g clip-path="url(#id2)"><g clip-path="url(#id3)"><g clip-path="url(#id4)"><path stroke-linecap="butt" transform="matrix(1.545721, 1.537809, -1.537809, 1.545721, 184.663704, 38.519206)" fill="none" stroke-linejoin="miter" d="M 6.292474 -0.000335507 L 89.757582 0.00351364 C 93.233715 0.00229759 96.046416 2.816767 96.042578 6.28782 L 96.043783 89.758009 C 96.046263 93.235412 93.230529 96.046843 89.76074 96.044275 L 6.289287 96.04421 C 2.811884 96.046689 0.000453794 93.230956 -0.00203231 89.756087 L 0.00308689 6.289714 C 0.000600784 2.814845 2.815071 0.0021441 6.292474 -0.000335507 " stroke="#000000" stroke-width="14.15" stroke-opacity="1" stroke-miterlimit="4"/></g></g></g></g><g clip-path="url(#id5)"><g clip-path="url(#id6)"><path stroke-linecap="butt" transform="matrix(2.214946, 0, 0, 2.214946, 152.755072, 231.15101)" fill="none" stroke-linejoin="miter" d="M 14.776568 0.00236592 C 6.618215 0.00236592 -0.00228993 6.614053 -0.00228993 14.772406 C -0.00228993 22.930759 6.618215 29.549501 14.776568 29.549501 C 22.933158 29.549501 29.544845 22.930759 29.544845 14.772406 C 29.544845 6.614053 22.933158 0.00236592 14.776568 0.00236592 " stroke="#000000" stroke-width="15.722" stroke-opacity="1" stroke-miterlimit="4"/></g></g><g clip-path="url(#id7)"><g clip-path="url(#id8)"><path stroke-linecap="butt" transform="matrix(2.214946, 0, 0, 2.214946, 224.598124, 158.679278)" fill="none" stroke-linejoin="miter" d="M 14.776883 0.00194866 C 6.609712 0.00194866 -0.00197483 6.613636 -0.00197483 14.771989 C -0.00197483 22.930342 6.609712 29.549083 14.776883 29.549083 C 22.933473 29.549083 29.54516 22.930342 29.54516 14.771989 C 29.54516 6.613636 22.933473 0.00194866 14.776883 0.00194866 " stroke="#000000" stroke-width="15.722" stroke-opacity="1" stroke-miterlimit="4"/></g></g><g clip-path="url(#id9)"><g clip-path="url(#id10)"><path stroke-linecap="butt" transform="matrix(2.214946, 0, 0, 2.214946, 77.750332, 158.679278)" fill="none" stroke-linejoin="miter" d="M 14.76989 0.00194866 C 6.611537 0.00194866 -0.000149979 6.613636 -0.000149979 14.771989 C -0.000149979 22.930342 6.611537 29.549083 14.76989 29.549083 C 22.935298 29.549083 29.546985 22.930342 29.546985 14.771989 C 29.546985 6.613636 22.935298 0.00194866 14.76989 0.00194866 " stroke="#000000" stroke-width="15.722" stroke-opacity="1" stroke-miterlimit="4"/></g></g></svg>